<?xml version="1.0" encoding="UTF-8" standalone="no"?>
<svg
   xmlns:dc="http://purl.org/dc/elements/1.1/"
   xmlns:cc="http://creativecommons.org/ns#"
   xmlns:rdf="http://www.w3.org/1999/02/22-rdf-syntax-ns#"
   xmlns:svg="http://www.w3.org/2000/svg"
   xmlns="http://www.w3.org/2000/svg"
   xmlns:sodipodi="http://sodipodi.sourceforge.net/DTD/sodipodi-0.dtd"
   xmlns:inkscape="http://www.inkscape.org/namespaces/inkscape"
   width="24"
   height="24"
   viewBox="0 0 24 24"
   fill="none"
   stroke="currentColor"
   stroke-width="2"
   stroke-linecap="round"
   stroke-linejoin="round"
   class="feather feather-github"
   version="1.1"
   id="svg4"
   sodipodi:docname="github-white.svg"
   inkscape:version="0.92.2 5c3e80d, 2017-08-06">
  <metadata
     id="metadata10">
    <rdf:RDF>
      <cc:Work
         rdf:about="">
        <dc:format>image/svg+xml</dc:format>
        <dc:type
           rdf:resource="http://purl.org/dc/dcmitype/StillImage" />
        <dc:title></dc:title>
      </cc:Work>
    </rdf:RDF>
  </metadata>
  <defs
     id="defs8" />
  <sodipodi:namedview
     pagecolor="#ffffff"
     bordercolor="#666666"
     borderopacity="1"
     objecttolerance="10"
     gridtolerance="10"
     guidetolerance="10"
     inkscape:pageopacity="0"
     inkscape:pageshadow="2"
     inkscape:window-width="1920"
     inkscape:window-height="1059"
     id="namedview6"
     showgrid="false"
     inkscape:zoom="9.8333333"
     inkscape:cx="-7.6779661"
     inkscape:cy="12"
     inkscape:window-x="0"
     inkscape:window-y="21"
     inkscape:window-maximized="0"
     inkscape:current-layer="svg4" />
  <path
     d="M9 19c-5 1.5-5-2.5-7-3m14 6v-3.87a3.37 3.37 0 0 0-.94-2.61c3.14-.35 6.44-1.54 6.44-7A5.44 5.44 0 0 0 20 4.77 5.07 5.07 0 0 0 19.91 1S18.73.65 16 2.48a13.38 13.38 0 0 0-7 0C6.27.65 5.09 1 5.09 1A5.07 5.07 0 0 0 5 4.77a5.44 5.44 0 0 0-1.5 3.78c0 5.42 3.3 6.61 6.44 7A3.37 3.37 0 0 0 9 18.13V22"
     id="path2" />
  <path
     style="fill:#ffffff;fill-opacity:1;stroke-width:0.20338982"
     d="M 8.3599082,22.676809 C 8.0847757,22.44035 8.0733617,22.392184 8.0406003,21.329351 l -0.033976,-1.102232 -1.0846681,-0.0019 C 5.9540779,20.223514 5.7724499,20.193144 5.2351127,19.943198 4.3530895,19.532916 3.789005,19.061731 2.9362874,18.022967 2.3776681,17.342468 2.0605539,17.047431 1.739586,16.909579 1.1583136,16.659932 0.93173018,16.179865 1.149348,15.659033 1.3339159,15.2173 1.6371067,15.055883 2.1695323,15.115896 c 0.6345451,0.07152 1.1669709,0.469875 2.1425959,1.603054 1.1501614,1.335903 1.4629028,1.541879 2.4359046,1.604323 1.097782,0.07045 1.275696,0.0054 1.275696,-0.466556 0,-0.210912 0.069759,-0.651299 0.1550195,-0.978637 C 8.264009,16.550743 8.3212124,16.274635 8.3058669,16.264508 8.2905215,16.254379 7.8803495,16.119115 7.3943736,15.963915 5.5134833,15.363238 4.1909321,14.257998 3.412926,12.636668 2.8916741,11.550402 2.6701274,10.667169 2.5732681,9.2892328 2.4600068,7.6779591 2.7741999,6.3367613 3.5439018,5.1458827 3.9184988,4.5663083 3.9334908,4.5123154 3.8362733,4.0929154 3.6802165,3.4196799 3.7909324,1.8215656 4.0430327,1.1084746 4.3327978,0.28884475 4.6279786,0.04067797 5.3131185,0.04067797 c 0.8134459,0 1.6378507,0.24752164 2.8272906,0.84887381 L 9.2231912,1.4369803 9.9709176,1.2816386 c 1.0219944,-0.2123213 4.0327804,-0.2123213 5.0547744,0 l 0.747727,0.1553417 1.082782,-0.54742852 c 1.195084,-0.60420549 2.013874,-0.84887381 2.840784,-0.84887381 0.463791,0 0.589096,0.04331726 0.834133,0.28835378 0.158595,0.15859459 0.365627,0.53613696 0.460072,0.83898305 0.213783,0.6855091 0.314401,2.4489421 0.169597,2.9723658 -0.100323,0.3626411 -0.0815,0.4277472 0.289736,1.0021199 0.780313,1.2072967 1.085857,2.5111005 0.972028,4.1477932 -0.09553,1.3736363 -0.317199,2.2592313 -0.836264,3.3410223 -0.786673,1.63952 -2.121667,2.749199 -4.018924,3.340623 -0.571874,0.178268 -0.887554,0.32624 -0.85835,0.402344 0.205407,0.535283 0.274062,1.566411 0.245282,3.683848 l -0.03226,2.373386 -0.285332,0.245258 c -0.408122,0.350804 -0.916303,0.330456 -1.298762,-0.052 L 15.040678,22.32751 v -2.433325 c 0,-2.653521 -0.03039,-2.843744 -0.57442,-3.595946 -0.432827,-0.598445 -0.449279,-1.01222 -0.05588,-1.405614 0.211539,-0.211539 0.427684,-0.303599 0.838983,-0.357337 3.499223,-0.457189 5.07745,-2.064355 5.253755,-5.350092 C 20.587167,7.6186742 20.359933,6.8107 19.518018,5.6825097 19.017876,5.0123031 18.981278,4.865034 19.164769,4.2610169 19.332233,3.7097547 19.380122,2.2038512 19.23481,2.0585387 19.077545,1.9012739 18.024357,2.3459237 16.847446,3.0664699 16.202525,3.4613132 16.276269,3.4587501 14.481356,3.1487027 13.335594,2.9507874 11.579612,2.9504045 10.515254,3.1478383 8.7886616,3.4681132 8.8183132,3.4697907 8.0526087,3.0085102 7.2073362,2.4992957 6.3225101,2.0895826 5.9866994,2.0519039 5.7395154,2.0241693 5.7351293,2.0369918 5.7058933,2.8728253 5.6867151,3.421116 5.7319327,3.9136579 5.8335312,4.2631444 6.0146753,4.8862581 5.9666464,5.0804874 5.4819988,5.6847462 4.677812,6.6874065 4.4103026,7.6347035 4.4934984,9.1851964 c 0.1055087,1.9663306 0.7683349,3.4179606 1.922081,4.2094756 0.8949544,0.613972 1.760799,0.905362 3.6630646,1.232761 0.748648,0.128848 1.037984,0.970355 0.537959,1.564602 -0.61335,0.728925 -0.656004,0.966123 -0.6584374,3.66155 l -0.00223,2.473925 -0.2972621,0.297262 c -0.3824412,0.382442 -0.8906282,0.402803 -1.2987619,0.05204 z"
     id="path12"
     inkscape:connector-curvature="0" />
</svg>
