<?xml version="1.0" encoding="UTF-8" standalone="no"?>
<svg
   xmlns:dc="http://purl.org/dc/elements/1.1/"
   xmlns:cc="http://creativecommons.org/ns#"
   xmlns:rdf="http://www.w3.org/1999/02/22-rdf-syntax-ns#"
   xmlns:svg="http://www.w3.org/2000/svg"
   xmlns="http://www.w3.org/2000/svg"
   xmlns:sodipodi="http://sodipodi.sourceforge.net/DTD/sodipodi-0.dtd"
   xmlns:inkscape="http://www.inkscape.org/namespaces/inkscape"
   width="24"
   height="24"
   viewBox="0 0 24 24"
   fill="none"
   stroke="currentColor"
   stroke-width="2"
   stroke-linecap="round"
   stroke-linejoin="round"
   class="feather feather-map-pin"
   version="1.1"
   id="svg6"
   sodipodi:docname="pin-white.svg"
   inkscape:version="0.92.2 5c3e80d, 2017-08-06">
  <metadata
     id="metadata12">
    <rdf:RDF>
      <cc:Work
         rdf:about="">
        <dc:format>image/svg+xml</dc:format>
        <dc:type
           rdf:resource="http://purl.org/dc/dcmitype/StillImage" />
        <dc:title></dc:title>
      </cc:Work>
    </rdf:RDF>
  </metadata>
  <defs
     id="defs10" />
  <sodipodi:namedview
     pagecolor="#ffffff"
     bordercolor="#666666"
     borderopacity="1"
     objecttolerance="10"
     gridtolerance="10"
     guidetolerance="10"
     inkscape:pageopacity="0"
     inkscape:pageshadow="2"
     inkscape:window-width="640"
     inkscape:window-height="1059"
     id="namedview8"
     showgrid="false"
     inkscape:zoom="9.8333333"
     inkscape:cx="1.9322034"
     inkscape:cy="12"
     inkscape:window-x="1280"
     inkscape:window-y="21"
     inkscape:window-maximized="0"
     inkscape:current-layer="svg6" />
  <path
     d="M21 10c0 7-9 13-9 13s-9-6-9-13a9 9 0 0 1 18 0z"
     id="path2" />
  <circle
     cx="12"
     cy="10"
     r="3"
     id="circle4" />
  <path
     style="fill:#ffffff;fill-opacity:1;stroke-width:0.20338982"
     d="M 11.302961,23.651618 C 9.9262418,22.776569 7.4648765,20.556454 6.0604631,18.922961 3.2107821,15.608458 1.9100075,12.511053 2.0856572,9.4581511 2.3594199,4.6999813 5.93759,0.80389074 10.633587,0.15073767 c 3.509225,-0.48808831 7.120011,0.98740883 9.212726,3.76465083 2.684976,3.5632329 2.782914,7.8336595 0.276134,12.0405435 -1.458624,2.447867 -4.567171,5.701325 -7.214528,7.550848 -0.728755,0.509129 -0.994137,0.533078 -1.604958,0.144838 z m 1.684574,-2.578191 c 1.367185,-1.091707 3.572613,-3.34456 4.511994,-4.60902 0.977505,-1.315776 1.960931,-3.222093 2.248088,-4.357791 0.709816,-2.8073025 0.03785,-5.5280911 -1.868951,-7.5673557 -1.679233,-1.79589 -3.824529,-2.6588757 -6.310689,-2.5385938 -5.0634349,0.2449721 -8.5876535,5.0307508 -7.336539,9.9627905 0.5770531,2.274811 1.9277289,4.405401 4.3613703,6.879736 1.0297398,1.046959 3.2335477,2.960197 3.4097707,2.960197 0.03894,0 0.482168,-0.328484 0.984956,-0.729963 z"
     id="path14"
     inkscape:connector-curvature="0" />
  <path
     style="fill:#ffffff;fill-opacity:1;stroke-width:0.20338982"
     d="M 11.005855,13.816113 C 9.8705264,13.498263 8.9732757,12.738941 8.4297742,11.636037 8.1335214,11.034863 8.1050847,10.892359 8.1050847,10.008918 c 0,-0.8706815 0.031578,-1.0348726 0.3134047,-1.6295483 1.2111233,-2.555565 4.5534226,-3.1125179 6.4341486,-1.0721713 1.851894,2.0090673 1.239806,5.1071156 -1.237763,6.2648676 -0.79844,0.373106 -1.810042,0.467732 -2.60902,0.244047 z m 2.165216,-2.148573 c 0.570494,-0.4031 0.832767,-0.949751 0.83046,-1.7309166 -0.0016,-0.5328095 -0.04843,-0.6955918 -0.305085,-1.0599892 -0.81863,-1.162267 -2.44388,-1.1919118 -3.343599,-0.060988 -0.5851609,0.735532 -0.4615158,2.0126378 0.260016,2.6856578 0.666377,0.621574 1.808724,0.695806 2.558208,0.166236 z"
     id="path16"
     inkscape:connector-curvature="0" />
</svg>
