<?xml version="1.0" encoding="UTF-8" standalone="no"?>
<svg
   xmlns:dc="http://purl.org/dc/elements/1.1/"
   xmlns:cc="http://creativecommons.org/ns#"
   xmlns:rdf="http://www.w3.org/1999/02/22-rdf-syntax-ns#"
   xmlns:svg="http://www.w3.org/2000/svg"
   xmlns="http://www.w3.org/2000/svg"
   xmlns:sodipodi="http://sodipodi.sourceforge.net/DTD/sodipodi-0.dtd"
   xmlns:inkscape="http://www.inkscape.org/namespaces/inkscape"
   width="24"
   height="24"
   viewBox="0 0 24 24"
   fill="none"
   stroke="currentColor"
   stroke-width="2"
   stroke-linecap="round"
   stroke-linejoin="round"
   class="feather feather-twitter"
   version="1.1"
   id="svg4"
   sodipodi:docname="twitter-white.svg"
   inkscape:version="0.92.2 5c3e80d, 2017-08-06">
  <metadata
     id="metadata10">
    <rdf:RDF>
      <cc:Work
         rdf:about="">
        <dc:format>image/svg+xml</dc:format>
        <dc:type
           rdf:resource="http://purl.org/dc/dcmitype/StillImage" />
        <dc:title></dc:title>
      </cc:Work>
    </rdf:RDF>
  </metadata>
  <defs
     id="defs8" />
  <sodipodi:namedview
     pagecolor="#ffffff"
     bordercolor="#666666"
     borderopacity="1"
     objecttolerance="10"
     gridtolerance="10"
     guidetolerance="10"
     inkscape:pageopacity="0"
     inkscape:pageshadow="2"
     inkscape:window-width="1920"
     inkscape:window-height="1059"
     id="namedview6"
     showgrid="false"
     inkscape:zoom="9.8333333"
     inkscape:cx="-7.6779661"
     inkscape:cy="12"
     inkscape:window-x="0"
     inkscape:window-y="21"
     inkscape:window-maximized="0"
     inkscape:current-layer="svg4" />
  <path
     d="M23 3a10.9 10.9 0 0 1-3.14 1.53 4.48 4.48 0 0 0-7.86 3v1A10.66 10.66 0 0 1 3 4s-4 9 5 13a11.64 11.64 0 0 1-7 2c9 5 20 0 20-11.5a4.5 4.5 0 0 0-.08-.83A7.72 7.72 0 0 0 23 3z"
     id="path2" />
  <path
     style="fill:#ffffff;fill-opacity:1;stroke-width:0.20338982"
     d=""
     id="path12"
     inkscape:connector-curvature="0" />
  <path
     style="fill:#ffffff;fill-opacity:1;stroke-width:0.20338982"
     d="M 6.7374862,21.808095 C 4.9113597,21.597634 3.2020525,21.103716 1.4549957,20.281679 0.33735121,19.755797 0.09152542,19.514323 0.09152542,18.942345 c 0,-0.294027 0.06763514,-0.432024 0.31288732,-0.63839 C 0.68742704,18.065815 0.80151197,18.040339 1.599328,18.03713 2.6658144,18.03283 3.7853498,17.843558 4.8449756,17.488381 5.9188464,17.128429 6.006347,17.061214 5.6873649,16.841282 3.5712782,15.382285 2.2444633,13.628351 1.5510195,11.373393 1.2889693,10.521251 1.2711611,10.343574 1.2662527,8.5322034 1.2606538,6.4659921 1.3597444,5.7899393 1.8922901,4.2610169 2.1931242,3.3973316 2.4935712,3.0915254 3.041287,3.0915254 c 0.3728732,0 0.4386992,0.051066 1.1249864,0.8727293 1.6249503,1.9454864 3.9386489,3.2307044 6.3744046,3.5408671 l 0.533898,0.067985 V 7.15208 c 0,-1.1427315 0.628183,-2.5366799 1.573799,-3.4922875 1.053216,-1.0643434 2.327302,-1.5852162 3.877533,-1.5852162 1.227494,0 1.953484,0.255441 3.460416,1.2175556 0.192978,0.1232083 0.299265,0.099128 0.966102,-0.2188812 0.412098,-0.1965259 0.975601,-0.5016246 1.25223,-0.6779971 0.798282,-0.5089682 1.44388,-0.3856519 1.676865,0.3202994 0.0906,0.2745147 0.07196,0.4541139 -0.102869,0.9912101 -0.323625,0.9942187 -0.765954,1.8637585 -1.321349,2.5975374 -0.488383,0.6452438 -0.501371,0.6806001 -0.501371,1.3648933 0,2.8880932 -0.902308,6.0089422 -2.37837,8.2261602 -2.046445,3.073999 -5.179764,5.126766 -8.790687,5.75914 -1.0864563,0.190269 -3.0763119,0.265748 -4.0493888,0.153601 z m 3.1675985,-1.940452 c 4.9907303,-0.709556 8.5983383,-4.038119 9.7777773,-9.021475 0.235618,-0.9955306 0.3283,-2.2153486 0.340186,-4.4772537 4.07e-4,-0.071165 0.190423,-0.3352366 0.422329,-0.5868258 C 20.903764,5.2847979 20.91529,5.163832 20.48884,5.3259683 19.906683,5.5473037 19.526621,5.4595763 18.994329,4.9810003 17.44417,3.587274 15.324122,3.6123594 13.958093,5.0405913 13.208489,5.824328 12.907615,6.752216 12.905853,8.285663 12.905141,8.8623648 12.870974,8.9864221 12.65718,9.1872717 12.329465,9.495143 11.752641,9.5513109 10.460876,9.4011353 8.0128944,9.1165423 5.652061,8.0469067 3.8928536,6.4253259 3.6455978,6.1974134 3.4216754,6.0325618 3.3952484,6.0589889 3.3141969,6.1400403 3.1627013,7.0653998 3.0902392,7.9220339 2.9517801,9.5588706 3.4220867,11.511486 4.2635414,12.793342 c 0.8393846,1.278703 2.0681943,2.323244 3.6584925,3.109875 0.7782988,0.384981 1.0116066,0.63986 1.0146879,1.108504 0.00172,0.261452 -0.081142,0.422584 -0.345546,0.671949 -0.5228358,0.493097 -2.1383102,1.294544 -3.5165995,1.744605 -0.2559249,0.08357 0.06327,0.201665 0.9152542,0.338627 0.4194915,0.06744 0.8313559,0.136061 0.9152542,0.152499 0.3773873,0.07394 2.3559969,0.0398 3,-0.05176 z"
     id="path14"
     inkscape:connector-curvature="0" />
</svg>
